<svg xmlns="http://www.w3.org/2000/svg" viewBox="0 0 231.11 240"><defs><linearGradient id="a" x1="31.69" x2="207.58" y1="36.98" y2="212.86" data-name="IH Primary Gradient" gradientUnits="userSpaceOnUse"><stop offset="0" stop-color="#45b035"/><stop offset=".5" stop-color="#00a0e9"/><stop offset="1" stop-color="#17288b"/></linearGradient></defs><path d="M231.11 88.8c0-27.14-22.04-48-48.05-48-12.97 0-27.45 8.66-41.22-13.49C131.65 10.92 113.43 0 92.69 0c-32.11 0-57.8 25.92-57.78 57.6C34.91 104-.03 103.74 0 150c.02 30.47 24.81 55.17 55.37 55.2 45.12.05 46.61 34.8 95.09 34.8 39.89 0 72.22-32.24 72.22-72 0-12.84-3.13-16.94-3.13-29.52 0-24.63 11.56-29.44 11.56-49.68Zm-82.37-39.53c-8.01-4.33-17.18-6.79-26.93-6.79-36.03 0-54.95 32.28-65.18 53.2-18.33 37.5-10.86 76.75 17.17 91.23-27.59-3.17-47.81-36.32-20.16-92.68 7-14.27 15.49-31.52 26.7-42.67s0-.02 0-.02c8.7-8.73 20.72-14.11 34-14.11s25.11 4.34 34.39 11.83Zm30.06 23.68c-8.31-2.64-11.93-4.44-16.09-11.28 4.17 1.84 11.29 3.17 18.74 4.94 17.67 4.18 30.88 20.02 30.88 39 0 4.25-.63 7.91-1.69 11.29v-.49c0-20.35-13.38-37.59-31.85-43.46Zm4.58 14.7c-3.57-2.27-7.25-3.92-12.43-12.28 1.89.86 3.97 1.64 6.32 2.38C193.8 83 205.59 98.4 205.59 116.4c0 5.06-.92 9.97-2.72 14.63.37-2.26.56-4.58.56-6.95 0-15.31-7.99-28.77-20.05-36.44Zm-58.19 109.16c12.01 0 23.28-3.13 33.05-8.62-7.77 8.81-19.15 14.38-31.85 14.38-11.5 0-21.92-4.57-29.56-11.98 8.62 3.99 18.23 6.22 28.35 6.22Zm-57.78-67.2c0-31.81 25.87-57.6 57.78-57.6s57.78 25.79 57.78 57.6-25.87 57.6-57.78 57.6-57.78-25.79-57.78-57.6Zm58.98 78.72c17.91 0 33.53-9.74 41.82-24.2 1.95-3.39 4.24-6.45 6.87-9.34 1.96-2.15 3.79-4.44 5.46-6.83-.26 1.17-.47 2.36-.62 3.55-2.96 22.27-22.31 39.47-45.45 39.47-5.59 0-10.95-.82-15.94-3.28 2.56.42 5.18.64 7.85.64Zm58.55-36.17c1.02-7.69 3.71-15.71 9.5-20.62-1.42 5.06-2.33 10.83-2.33 17.66 0 26.6-21.6 48.48-48.63 48.48-4.57 0-9.06-.63-13.36-1.85 27.86 2.24 51.37-17.73 54.82-43.68Zm5.65-26.21c1.31-5.23 2.01-10.7 2.01-16.34 0-13.13-3.78-25.37-10.3-35.72 9.31 6.81 15.36 17.8 15.36 30.2 0 8.16-2.62 15.71-7.06 21.86Zm-8.13-83.54c-12.86-3.04-21.7-3.96-26.21-11.39 5.8 2.56 12.39 3 21.47 3 22.32 0 40.16 16.68 40.16 39.48 0 3.7-.47 7.04-1.25 10.18-.87-20.11-15.16-36.76-34.17-41.26Zm-20.72 10.73c-10.53-6.79-23.08-10.73-36.55-10.73-10.5 0-20.44 2.39-29.29 6.66 8.52-6.3 19.07-10.02 30.5-10.02 13.7 0 26.15 5.36 35.34 14.09ZM126.4 52.57c-28.07 0-47.27 17.95-61.58 47.12-4.5 9.01-7.03 19.17-7.03 29.92 0 23.59 12.19 44.33 30.63 56.32-35.4-7.05-45.59-48.84-26.58-87.72 12.88-26.34 30.66-49.97 59.99-49.97 12.47 0 23.91 4.38 32.86 11.68-8.36-4.69-18.01-7.36-28.29-7.36Zm17.03-13.1c-7.96-4.37-17.48-7.06-29.06-7.06-14.69 0-27.99 5.97-37.58 15.6C65.57 59.17 57.4 75.15 49.12 92.03c-24.04 49-13.29 82.01 8.02 94.55-19.93-4.35-29.44-20.42-29.44-40.89s9.29-36.45 18.42-55.11C56.3 69.77 55.7 56.63 70.48 41.42c9.3-9.57 22.3-15.49 36.66-15.49s26.45 4.56 36.29 13.54Zm-5.41-9.91c-8.53-5.12-18.84-7.95-30.87-7.95-15.61 0-29.71 6.44-39.78 16.8C51.8 54.44 52.24 68.22 42.23 88.68c-9.22 18.84-18.86 35.97-18.86 57.01 0 29.5 18.16 46.32 44.54 46.32 16.82 0 28.98 9.06 45.13 20.4 8.62 6.05 19.12 9.6 30.46 9.6 29.25 0 52.96-23.64 52.96-52.8 0-15.71 3.6-24.38 8.64-30.99-1.38 10.47.75 20.8.75 32.19 0 31.96-26.67 57.6-57.78 57.6-39.65 0-44.13-32.4-85.65-32.4-25.63 0-46.76-18.72-46.76-47.52 0-24.57 13.96-41.21 23.57-60.86 10.56-21.58 4.51-38.36 24.03-57.75 9.59-9.53 22.63-15.07 36.66-15.07 14.08 0 28.53 5.51 38.09 15.15Zm81.8 138.45c0 38.16-31.02 69.12-69.33 69.12-47.25 0-48.82-34.75-95.09-34.8-28.81-.03-52.47-23.28-52.48-52.32-.03-44.95 34.91-44.86 34.91-92.4-.02-30.08 24.46-54.72 54.89-54.72 15.69 0 30.25 6.59 40.56 17.86-9.42-6.37-21.34-9.94-33.34-9.94-15.3 0-29.17 6.15-39.2 16.12-20.36 20.23-14.53 37.88-24.73 58.72-9.56 19.53-23.94 36.77-23.94 62.44 0 30.86 22.81 51.12 50.37 51.12 40.05 0 44.5 32.4 85.65 32.4 33.25 0 61.39-27.4 61.39-61.2 0-10.78-1.2-14.37-1.2-25.2 0-21.46 13.24-31.31 13.24-51.72 0-24.98-19.66-43.08-43.77-43.08-14.98 0-22.71-1.52-27.78-9.72 11.92 8.31 23.37 3 33.13 3 24.37 0 45.16 19.65 45.16 45.12 0 19.17-11.56 24.44-11.56 49.68 0 12.9 3.13 17.04 3.13 29.52Z" style="fill:url(#a)"/></svg>