<svg xmlns="http://www.w3.org/2000/svg" xml:space="preserve" style="enable-background:new 0 0 375.2 78.4" viewBox="2 1 366.2 76.5"><linearGradient id="a" x1="12.018" x2="68.001" y1="12.816" y2="68.799" gradientUnits="userSpaceOnUse"><stop offset="0" style="stop-color:#48a839"/><stop offset=".5" style="stop-color:#2096d5"/><stop offset="1" style="stop-color:#192d7c"/></linearGradient><path d="M75.4 29.3c0-8.6-7-15.3-15.3-15.3-4.1 0-8.7 2.8-13.1-4.3C43.8 4.5 38 1 31.4 1 21.2 1 13.1 9.3 13.1 19.4 13.1 34.1 2 34.1 2 48.8c0 9.7 7.9 17.6 17.6 17.6 14.3 0 14.8 11.1 30.2 11.1 12.7 0 22.9-10.3 22.9-22.9 0-4.1-1-5.4-1-9.4.1-7.9 3.7-9.5 3.7-15.9zM49.3 16.7c-2.5-1.4-5.5-2.2-8.6-2.2-11.4 0-17.5 10.3-20.7 17-5.8 12-3.4 24.5 5.5 29.1C16.7 59.6 10.3 49 19 31c2.2-4.5 4.9-10 8.5-13.6 2.8-2.8 6.6-4.5 10.8-4.5 4.4 0 8 1.4 11 3.8zm9.5 7.5c-2.6-.8-3.8-1.4-5.1-3.6 1.3.6 3.6 1 6 1.6 5.6 1.3 9.8 6.4 9.8 12.4 0 1.4-.2 2.5-.5 3.6V38c-.1-6.4-4.3-11.9-10.2-13.8zm1.5 4.7c-1.1-.7-2.3-1.3-3.9-3.9.6.3 1.3.5 2 .8 5.3 1.7 9 6.6 9 12.3 0 1.6-.3 3.2-.9 4.7.1-.7.2-1.5.2-2.2-.1-4.9-2.6-9.2-6.4-11.7zM41.8 63.7c3.8 0 7.4-1 10.5-2.7-2.5 2.8-6.1 4.6-10.1 4.6-3.7 0-7-1.5-9.4-3.8 2.7 1.2 5.8 1.9 9 1.9zM23.4 42.3c0-10.1 8.2-18.4 18.4-18.4s18.4 8.2 18.4 18.4c0 10.1-8.2 18.4-18.4 18.4s-18.4-8.3-18.4-18.4zm18.8 25.1c5.7 0 10.7-3.1 13.3-7.7.6-1.1 1.3-2.1 2.2-3 .6-.7 1.2-1.4 1.7-2.2-.1.4-.1.8-.2 1.1-.9 7.1-7.1 12.6-14.4 12.6-1.8 0-3.5-.3-5.1-1 .8.1 1.6.2 2.5.2zm18.6-11.5c.3-2.4 1.2-5 3-6.6-.5 1.6-.7 3.5-.7 5.6 0 8.5-6.9 15.5-15.5 15.5-1.5 0-2.9-.2-4.2-.6 8.8.7 16.3-5.7 17.4-13.9zm1.8-8.4c.4-1.7.6-3.4.6-5.2 0-4.2-1.2-8.1-3.3-11.4 3 2.2 4.9 5.7 4.9 9.6 0 2.6-.8 5.1-2.2 7zM60 20.9c-4.1-1-6.9-1.3-8.3-3.6 1.8.8 3.9 1 6.8 1 7.1 0 12.8 5.3 12.8 12.6 0 1.2-.2 2.2-.4 3.2-.3-6.5-4.9-11.8-10.9-13.2zm-6.6 3.4c-3.3-2.2-7.3-3.4-11.6-3.4-3.3 0-6.5.8-9.3 2.1 2.7-2 6.1-3.2 9.7-3.2 4.3 0 8.3 1.7 11.2 4.5zm-11.2-6.5c-8.9 0-15 5.7-19.6 15-1.4 2.9-2.2 6.1-2.2 9.5 0 7.5 3.9 14.1 9.7 18-11.2-2.2-14.5-15.6-8.4-28 4.1-8.4 9.7-15.9 19.1-15.9 4 0 7.6 1.4 10.4 3.7-2.7-1.5-5.8-2.3-9-2.3zm5.4-4.2c-2.5-1.4-5.6-2.2-9.2-2.2-4.7 0-8.9 1.9-11.9 5-3.6 3.6-6.2 8.7-8.8 14-7.6 15.6-4.2 26.1 2.5 30.1-6.3-1.4-9.4-6.5-9.4-13 0-6.4 3-11.6 5.9-17.6 3.2-6.6 3-10.8 7.7-15.7 3-3.1 7.1-4.9 11.6-4.9 4.4 0 8.4 1.4 11.6 4.3zm-1.8-3.2c-2.7-1.6-6-2.5-9.8-2.5-5 0-9.4 2.1-12.6 5.4-4.9 5.1-4.8 9.5-8 16-2.9 6-6 11.5-6 18.2 0 9.4 5.8 14.8 14.2 14.8 5.3 0 9.2 2.9 14.3 6.5 2.7 1.9 6.1 3.1 9.7 3.1 9.3 0 16.8-7.5 16.8-16.8 0-5 1.1-7.8 2.7-9.9-.4 3.3.2 6.6.2 10.3 0 10.2-8.5 18.4-18.4 18.4-12.6 0-14-10.3-27.2-10.3-8.1 0-14.9-6-14.9-15.1 0-7.8 4.4-13.1 7.5-19.4 3.4-6.9 1.4-12.2 7.6-18.4 3-3 7.2-4.8 11.6-4.8 4.7-.3 9.3 1.4 12.3 4.5zm26 44.1c0 12.2-9.9 22-22 22-15 0-15.5-11.1-30.2-11.1-9.2 0-16.7-7.4-16.7-16.7C2.9 34.5 14 34.5 14 19.4 14 9.8 21.8 2 31.4 2c5 0 9.6 2.1 12.9 5.7-3-2-6.8-3.2-10.6-3.2-4.9 0-9.3 2-12.5 5.1-6.5 6.4-4.6 12.1-7.9 18.7-3 6.2-7.6 11.7-7.6 19.9 0 9.8 7.2 16.3 16 16.3C34.6 64.5 36 74.8 49 74.8c10.6 0 19.5-8.7 19.5-19.5 0-3.4-.4-4.6-.4-8 0-6.8 4.2-10 4.2-16.5 0-8-6.2-13.7-13.9-13.7-4.8 0-7.2-.5-8.8-3.1 3.8 2.6 7.4 1 10.5 1 7.7 0 14.3 6.3 14.3 14.4 0 6.1-3.7 7.8-3.7 15.8.1 4 1.1 5.4 1.1 9.3z" style="fill:url(#a)"/><path d="M102.9 31.8c-4.7 0-8.4-3.5-8.4-8.2 0-4.8 3.7-8.2 8.4-8.2s8.3 3.4 8.3 8.2c0 4.7-3.6 8.2-8.3 8.2zm0-4c2.3 0 4-1.6 4-4.2 0-2.7-1.7-4.2-4-4.2s-4.1 1.5-4.1 4.2c0 2.6 1.8 4.2 4.1 4.2zm17.5 13.6v3.7H99.1V34.3h4.4v7.1h16.9zm-.8-4.8h-4.4V13.4h4.4v23.2zm16.5-20.7h4.4v22.3h-14.9V15.9h4.4v7.8h6.2v-7.8zm0 11.4h-6.2v7.2h6.2v-7.2zm17.1 1.9h-4.5v16.4h-4.4V13.4h4.4v12h4.5v3.8zm19-2.1c0 7.1-3.4 11.6-8.1 11.6-4.6 0-8.1-4.5-8.1-11.6s3.4-11.5 8.1-11.5c4.7 0 8.1 4.4 8.1 11.5zm-11.9 0c0 4.8 1.6 7.4 3.8 7.4 2.3 0 3.8-2.6 3.8-7.4 0-4.8-1.6-7.3-3.8-7.3-2.3-.1-3.8 2.5-3.8 7.3zm20.3-13.8v32.5h-4.4V13.3h4.4zm33 24.9V42h-27.8v-3.8h27.8zm-27-7.9c7-1 10.4-5 10.7-8.8h-9.2v-3.7h9.3v-4h4.4v4h9.3v3.7h-9.2c.3 3.8 3.7 7.8 10.7 8.8L211 34c-5.4-.8-9.3-3.4-11.3-6.9-2 3.5-5.9 6.1-11.3 6.9l-1.8-3.7zM229 15.9h4.4v22.3h-14.9V15.9h4.4v7.8h6.2v-7.8zm0 11.4h-6.2v7.2h6.2v-7.2zm17 1.9h-4.5v16.4h-4.4V13.4h4.4v12h4.5v3.8zm19-2.1c0 7.1-3.4 11.6-8.1 11.6-4.6 0-8.1-4.5-8.1-11.6s3.4-11.5 8.1-11.5c4.7 0 8.1 4.4 8.1 11.5zm-11.9 0c0 4.8 1.6 7.4 3.8 7.4 2.3 0 3.8-2.6 3.8-7.4 0-4.8-1.6-7.3-3.8-7.3-2.2-.1-3.8 2.5-3.8 7.3zm20.4-13.8v32.5h-4.4V13.3h4.4zm32.9 24.9V42h-27.8v-3.8h11.7v-5.5c-5.4-.7-9.2-4-9.2-8.8 0-5.4 4.9-8.9 11.4-8.9 6.6 0 11.5 3.5 11.5 8.9 0 4.8-3.8 8.1-9.3 8.8v5.5h11.7zm-13.9-9.1c4.2 0 7.1-1.9 7.1-5.2s-2.9-5.2-7.1-5.2c-4.2 0-7.1 1.9-7.1 5.2s2.9 5.2 7.1 5.2zm44.4 9.1V42h-27.8v-3.8h9.8v-7.7h4.4v7.7h13.6zm-7.1-14.4c.1-1.5.1-2.8.1-4.1h-17.6V16h22v2.8c0 3.9 0 8.4-1.4 15.5l-4.3-.6c.5-2.4.9-4.5 1-6.5l-17.6 1-.6-3.9 18.4-.5zm26.2 3.3c0 7.1-3.4 11.6-8.1 11.6-4.7 0-8.1-4.5-8.1-11.6s3.4-11.5 8.1-11.5c4.6 0 8.1 4.4 8.1 11.5zm-4.3 0c0-4.8-1.6-7.3-3.8-7.3-2.3 0-3.8 2.6-3.8 7.3 0 4.8 1.5 7.4 3.8 7.4s3.8-2.6 3.8-7.4zm16.5 2.2h-4.5v16.3h-4.4V13.3h4.4v12.2h4.5v3.8z" style="fill:#162142"/><path d="M102.3 61.1c-2.1 0-3.7-1.5-3.7-3.6s1.6-3.7 3.7-3.7 3.7 1.5 3.7 3.7c0 2.1-1.6 3.6-3.7 3.6zm0-1.8c1 0 1.8-.7 1.8-1.9s-.8-1.9-1.8-1.9-1.8.7-1.8 1.9.8 1.9 1.8 1.9zm7.7 6.1V67h-9.4v-4.8h2v3.2h7.4zm-.3-2.2h-2V52.9h2v10.3zm7.5-9.2h1.9v10h-6.6V54h1.9v3.5h2.7V54zm0 5.1h-2.7v3.2h2.7v-3.2zm7.6.9h-2v7.3h-2V52.9h2v5.3h2V60zm8.6-1c0 3.2-1.5 5.2-3.6 5.2s-3.6-2-3.6-5.2 1.5-5.1 3.6-5.1c2 0 3.6 2 3.6 5.1zm-5.3 0c0 2.1.7 3.3 1.7 3.3s1.7-1.1 1.7-3.3c0-2.1-.7-3.3-1.7-3.3-1 .1-1.7 1.2-1.7 3.3zm9-6.1v14.4h-2V52.9h2zM151.9 64v1.7h-12.4V64h12.4zm-12-3.6c3.1-.5 4.6-2.2 4.8-3.9h-4.1v-1.6h4.1v-1.8h2v1.8h4.1v1.6h-4.1c.1 1.7 1.7 3.5 4.8 3.9l-.7 1.7c-2.4-.4-4.1-1.5-5-3.1-.9 1.5-2.6 2.7-5 3.1l-.9-1.7zm19.4.5c-1.1-.5-1.9-1.3-2.4-2.4-.5 1.2-1.3 2.2-2.6 2.8l-1-1.6c1.9-.9 2.7-2.7 2.7-4.3v-1.7h1.9v1.7c0 1.5.7 3.1 2.5 3.9l-1.1 1.6zm5.9 3.7c0 1.7-1.8 2.7-4.7 2.7-2.9 0-4.7-1-4.7-2.7 0-1.7 1.8-2.7 4.7-2.7 2.8 0 4.7 1 4.7 2.7zm-2 0c0-.8-1-1.1-2.7-1.1-1.8 0-2.8.4-2.8 1.1 0 .8 1 1.1 2.8 1.1 1.7 0 2.7-.3 2.7-1.1zm-1-3.4h-1.8v-8.1h1.8v3.2h1.1v-3.5h1.9v8.8h-1.9V58h-1.1v3.2zm7.3 1.1c1.5 0 2.6-.1 3.9-.3l.2 1.7c-1.6.3-2.9.3-5 .3h-.9v-9.6h5.5V56h-3.7v2.1h3.4v1.6h-3.4v2.6zm9.4-9.4v14.4H177v-7.2h-1v6.5h-1.8V53.1h1.8v5.3h1.1v-5.6h1.8zm9.1.3h1.8v13.5H188V62h-1.9v-1.7h1.9v-2h-1.6c-.6 2.4-2 4.4-4.5 6l-1.1-1.4c2.7-1.7 3.9-3.8 4.1-6.6h-3.4v-1.6h5.3c0 .7 0 1.4-.1 2.1h1.3v-3.6zm4.7-.3v14.4h-1.9V52.9h1.9z" style="fill:#1f9e96"/></svg>